<?xml version="1.0" encoding="UTF-8"?>
<svg xmlns="http://www.w3.org/2000/svg" viewBox="0 0 576 404.292" width="100%" height="100%">
  <defs>
    <clipPath id="c">
      <path clip-rule="nonzero" d="M 0.503906 0 L 575.496094 0 L 575.496094 403.585938 L 0.503906 403.585938 Z M 0.503906 0"/>
    </clipPath>
  </defs>
  <g clip-path="url(#c)">
    <path clip-rule="nonzero" d="M 0.503906 0 L 575.496094 0 L 575.496094 403.585938 L 0.503906 403.585938 Z M 0.503906 0 "/>
    <path fill-rule="nonzero" fill="#f0a500" fill-opacity="1" d="M 529.589844 60.097656 L 444.222656 42.789062 L 425.828125 24.050781 C 420.722656 18.855469 413.746094 15.925781 406.464844 15.925781 L 318.367188 15.925781 C 317.308594 15.925781 316.265625 16.003906 315.230469 16.125 L 307.339844 8.101562 C 302.238281 2.917969 295.273438 0 288 0 C 280.726562 0 273.757812 2.917969 268.660156 8.101562 L 260.769531 16.125 C 259.734375 16.003906 258.691406 15.925781 257.632812 15.925781 L 169.535156 15.925781 C 162.253906 15.925781 155.277344 18.855469 150.171875 24.050781 L 131.777344 42.789062 L 46.410156 60.097656 C 19.808594 65.488281 0.503906 89.105469 0.503906 116.242188 L 0.503906 302.390625 C 0.503906 329.53125 19.808594 353.140625 46.410156 358.539062 L 249.417969 399.695312 C 262.144531 402.277344 275.128906 403.585938 288 403.585938 C 300.871094 403.585938 313.855469 402.277344 326.585938 399.695312 L 529.59375 358.535156 C 556.191406 353.140625 575.496094 329.53125 575.496094 302.390625 L 575.496094 116.242188 C 575.496094 89.105469 556.191406 65.488281 529.589844 60.097656 "/>
    <path fill-rule="nonzero" fill="rgb(100%, 100%, 100%)" fill-opacity="1" d="M 407.847656 216.742188 L 377.953125 216.742188 L 377.953125 194.78125 L 398.472656 194.78125 L 398.472656 180.621094 L 377.953125 180.621094 L 377.953125 153.140625 L 402.875 153.140625 L 401.683594 137.898438 L 361.152344 137.898438 L 361.152344 231.984375 L 409.035156 231.984375 Z M 407.847656 216.742188 "/>
    <path fill-rule="nonzero" fill="rgb(100%, 100%, 100%)" fill-opacity="1" d="M 161.84375 253.09375 L 145.164062 253.09375 L 142.882812 197.40625 L 141.804688 155.386719 L 138.921875 155.386719 L 134.84375 196.671875 L 129.320312 253.09375 L 107.722656 253.09375 L 102.082031 195.644531 L 98.121094 155.386719 L 95.480469 155.386719 L 94.402344 197.261719 L 92.359375 255.039062 L 75.679688 255.039062 L 82.042969 137.898438 L 110.242188 137.898438 L 114.5625 182.863281 L 118.523438 236.050781 L 118.640625 236.050781 L 122.484375 183.15625 L 126.921875 137.898438 L 155.125 137.898438 Z M 161.84375 253.09375 "/>
    <path fill-rule="nonzero" fill="rgb(100%, 100%, 100%)" fill-opacity="1" d="M 198.433594 197.300781 L 194.351562 152.179688 L 189.191406 152.179688 L 185.234375 197.300781 Z M 176.113281 137.902344 L 207.433594 137.902344 L 218.832031 231.984375 L 201.792969 231.984375 L 199.753906 211.339844 L 183.910156 211.339844 L 181.871094 231.984375 L 164.832031 231.984375 Z M 176.113281 137.902344 "/>
    <path fill-rule="nonzero" fill="rgb(100%, 100%, 100%)" fill-opacity="1" d="M 215.148438 137.898438 L 215.148438 153.140625 L 228.347656 153.140625 L 228.347656 231.980469 L 245.386719 231.980469 L 245.386719 153.140625 L 267.503906 153.140625 L 267.503906 231.980469 L 284.542969 231.980469 L 284.542969 153.140625 L 297.144531 153.140625 L 297.144531 137.898438 Z M 215.148438 137.898438 "/>
    <path fill-rule="nonzero" fill="rgb(100%, 100%, 100%)" fill-opacity="1" d="M 321.105469 137.898438 L 321.105469 182.539062 L 337.1875 182.539062 L 337.1875 137.898438 L 354.226562 137.898438 L 354.226562 231.980469 L 337.1875 231.980469 L 337.1875 197.421875 L 321.105469 197.421875 L 321.105469 231.980469 L 304.066406 231.980469 L 304.066406 137.898438 Z M 321.105469 137.898438 "/>
    <path fill-rule="nonzero" fill="rgb(100%, 100%, 100%)" fill-opacity="1" d="M 466.238281 137.898438 L 471.277344 196.527344 L 474.398438 235.609375 L 478.238281 235.609375 L 479.558594 196.378906 L 482.917969 137.898438 L 500.320312 137.898438 L 491.320312 253.09375 L 462.28125 253.09375 L 457.476562 188.886719 L 455.320312 153.769531 L 453.039062 189.179688 L 448.238281 253.09375 L 419.199219 253.09375 L 410.195312 137.898438 L 427.480469 137.898438 L 431.078125 197.113281 L 432.398438 235.609375 L 436.238281 235.609375 L 439.238281 197.113281 L 444.28125 137.898438 Z M 466.238281 137.898438 "/>
    <path fill-rule="nonzero" fill="rgb(100%, 100%, 100%)" fill-opacity="1" d="M 75.679688 285.769531 C 75.679688 282.351562 78.242188 279.984375 81.792969 279.984375 C 85.277344 279.984375 87.839844 282.351562 87.839844 285.769531 C 87.839844 289.25 85.277344 291.617188 81.792969 291.617188 C 78.242188 291.617188 75.679688 289.25 75.679688 285.769531 "/>
    <path fill-rule="nonzero" fill="rgb(100%, 100%, 100%)" fill-opacity="1" d="M 128.78125 304.496094 L 128.78125 288.988281 L 111.167969 288.988281 L 111.167969 304.496094 L 104.269531 304.496094 L 104.269531 267.695312 L 111.167969 267.695312 L 111.167969 282.546875 L 128.78125 282.546875 L 128.78125 267.695312 L 135.679688 267.695312 L 135.679688 304.496094 Z M 128.78125 304.496094 "/>
    <path fill-rule="nonzero" fill="rgb(100%, 100%, 100%)" fill-opacity="1" d="M 170.777344 282.8125 C 168.414062 276.503906 167.496094 273.546875 167.429688 273.480469 L 167.230469 273.480469 L 163.679688 283.207031 L 161.25 289.84375 L 173.410156 289.84375 Z M 159.082031 295.820312 L 155.863281 304.496094 L 148.832031 304.496094 L 163.222656 267.699219 L 171.570312 267.699219 L 185.960938 304.496094 L 178.796875 304.496094 L 175.574219 295.820312 Z M 159.082031 295.820312 "/>
    <path fill-rule="nonzero" fill="rgb(100%, 100%, 100%)" fill-opacity="1" d="M 224.804688 304.496094 L 206.074219 278.277344 L 205.875 278.277344 C 205.875 278.34375 206.007812 282.285156 206.007812 286.621094 L 206.007812 304.496094 L 199.109375 304.496094 L 199.109375 267.695312 L 206.207031 267.695312 L 224.933594 293.390625 L 225.066406 293.390625 C 225.066406 293.324219 225 289.710938 225 285.835938 L 225 267.695312 L 231.902344 267.695312 L 231.902344 304.496094 Z M 224.804688 304.496094 "/>
    <path fill-rule="nonzero" fill="rgb(100%, 100%, 100%)" fill-opacity="1" d="M 261.9375 298.054688 C 269.890625 298.054688 275.277344 294.375 275.277344 286.226562 C 275.277344 278.144531 269.957031 274.136719 261.742188 274.136719 L 255.234375 274.136719 L 255.234375 298.054688 Z M 261.808594 267.699219 C 273.632812 267.699219 282.246094 274.664062 282.246094 286.226562 C 282.246094 297.859375 273.632812 304.496094 262.003906 304.496094 L 248.335938 304.496094 L 248.335938 267.699219 Z M 261.808594 267.699219 "/>
    <path fill-rule="nonzero" fill="rgb(100%, 100%, 100%)" fill-opacity="1" d="M 304.460938 304.496094 L 304.460938 290.171875 L 290.597656 267.695312 L 298.484375 267.695312 L 303.738281 276.171875 C 306.238281 280.3125 308.144531 283.601562 308.210938 283.664062 L 308.339844 283.664062 C 308.40625 283.601562 310.3125 280.3125 312.941406 276.109375 L 318.066406 267.695312 L 325.292969 267.695312 L 311.363281 290.171875 L 311.363281 304.496094 Z M 304.460938 304.496094 "/>
    <path fill-rule="nonzero" fill="rgb(100%, 100%, 100%)" fill-opacity="1" d="M 368.605469 286.949219 L 368.671875 277.816406 L 368.472656 277.816406 L 359.011719 295.625 L 354.480469 295.625 L 344.882812 277.421875 L 344.75 277.421875 C 344.75 277.488281 344.816406 283.203125 344.816406 286.554688 L 344.816406 304.496094 L 338.117188 304.496094 L 338.117188 267.699219 L 346.527344 267.699219 L 353.292969 280.050781 C 355.660156 284.324219 356.976562 287.148438 357.039062 287.148438 L 357.238281 287.148438 C 357.367188 287.148438 358.75 284.324219 361.113281 279.984375 L 367.75 267.699219 L 375.507812 267.699219 L 375.507812 304.496094 L 368.605469 304.496094 Z M 368.605469 286.949219 "/>
    <path fill-rule="nonzero" fill="rgb(100%, 100%, 100%)" fill-opacity="1" d="M 410.605469 282.8125 C 408.238281 276.503906 407.320312 273.546875 407.253906 273.480469 L 407.058594 273.480469 L 403.507812 283.207031 L 401.078125 289.84375 L 413.234375 289.84375 Z M 398.910156 295.820312 L 395.6875 304.496094 L 388.65625 304.496094 L 403.046875 267.699219 L 411.394531 267.699219 L 425.785156 304.496094 L 418.621094 304.496094 L 415.402344 295.820312 Z M 398.910156 295.820312 "/>
    <path fill-rule="nonzero" fill="rgb(100%, 100%, 100%)" fill-opacity="1" d="M 464.628906 304.496094 L 445.898438 278.277344 L 445.699219 278.277344 C 445.699219 278.34375 445.832031 282.285156 445.832031 286.621094 L 445.832031 304.496094 L 438.933594 304.496094 L 438.933594 267.695312 L 446.03125 267.695312 L 464.757812 293.390625 L 464.890625 293.390625 C 464.890625 293.324219 464.824219 289.710938 464.824219 285.835938 L 464.824219 267.695312 L 471.726562 267.695312 L 471.726562 304.496094 Z M 464.628906 304.496094 "/>
    <path fill-rule="nonzero" fill="rgb(100%, 100%, 100%)" fill-opacity="1" d="M 488.160156 285.769531 C 488.160156 282.351562 490.722656 279.984375 494.273438 279.984375 C 497.757812 279.984375 500.320312 282.351562 500.320312 285.769531 C 500.320312 289.25 497.757812 291.617188 494.273438 291.617188 C 490.722656 291.617188 488.160156 289.25 488.160156 285.769531 "/>
    <path fill-rule="nonzero" fill="rgb(100%, 100%, 100%)" fill-opacity="1" d="M 301.796875 247.773438 C 302.84375 247.773438 303.445312 248.539062 303.40625 249.542969 C 303.367188 251.957031 300.066406 253.566406 297.210938 253.125 C 297.695312 250.226562 299.542969 247.773438 301.796875 247.773438 M 307.347656 254.894531 C 306.019531 256.421875 303.488281 258.433594 301.195312 258.433594 C 298.539062 258.433594 297.332031 257.269531 297.089844 255.417969 C 301.515625 256.421875 306.707031 253.929688 306.707031 249.382812 C 306.707031 247.171875 305.136719 244.839844 302.039062 244.839844 C 297.382812 244.839844 294.027344 249.148438 293.601562 254.039062 C 291.976562 256.445312 290.316406 258.113281 289.085938 258.113281 C 288.480469 258.113281 288.117188 257.75 288.117188 257.105469 C 288.117188 255.097656 291.375 251.03125 291.335938 248.175781 C 291.335938 246.164062 290.007812 244.839844 288.039062 244.839844 C 285.90625 244.839844 283.695312 246.164062 282.085938 248.699219 C 283.574219 244.394531 285.019531 240.132812 286.628906 235.867188 L 283.128906 235.867188 C 281.492188 240.523438 279.28125 247.007812 277.347656 252.734375 C 275.425781 255.914062 273.324219 258.113281 271.90625 258.113281 C 269.734375 258.113281 269.976562 255.214844 272.511719 248.015625 L 276.050781 248.015625 L 277.015625 245.242188 L 273.515625 245.242188 C 274.160156 243.511719 274.882812 241.621094 275.726562 239.488281 L 272.1875 239.488281 L 270.054688 245.242188 L 268.085938 245.242188 L 267.160156 248.015625 L 269.089844 248.015625 C 266.636719 255.175781 265.46875 261.410156 270.980469 261.410156 C 272.398438 261.410156 273.816406 260.589844 275.105469 259.394531 C 274.914062 259.960938 274.730469 260.503906 274.5625 261.007812 L 278.101562 261.007812 C 279.46875 255.820312 282.808594 248.015625 286.429688 248.015625 C 287.273438 248.015625 287.59375 248.5 287.59375 249.261719 C 287.59375 251.355469 284.5 254.855469 284.5 257.953125 C 284.5 260.003906 285.746094 261.410156 287.996094 261.410156 C 290.15625 261.410156 292.277344 259.609375 293.96875 257.433594 C 294.886719 259.929688 297.292969 261.410156 300.429688 261.410156 C 304.128906 261.410156 307.265625 259.359375 308.957031 257.269531 Z M 307.347656 254.894531 "/>
    <path fill-rule="nonzero" fill="rgb(100%, 100%, 100%)" fill-opacity="1" d="M 257.605469 245.464844 L 171.277344 245.464844 L 171.277344 253.097656 L 257.605469 253.097656 Z M 257.605469 245.464844 "/>
    <path fill-rule="nonzero" fill="rgb(100%, 100%, 100%)" fill-opacity="1" d="M 407.652344 245.464844 L 316.554688 245.464844 L 316.554688 253.097656 L 407.652344 253.097656 Z M 407.652344 245.464844 "/>
    <path fill-rule="nonzero" fill="rgb(100%, 100%, 100%)" fill-opacity="1" d="M 524.199219 86.6875 L 430.683594 67.730469 L 406.464844 43.054688 L 318.367188 43.054688 L 365.195312 90.761719 L 434.390625 90.761719 C 446.941406 90.761719 459.457031 92.019531 471.757812 94.511719 L 520.605469 104.414062 C 526.230469 105.558594 530.277344 110.503906 530.277344 116.246094 L 530.277344 302.390625 C 530.277344 308.132812 526.230469 313.078125 520.605469 314.21875 L 317.601562 355.375 C 297.957031 359.359375 278.039062 359.355469 258.398438 355.375 L 55.394531 314.21875 C 49.765625 313.078125 45.722656 308.132812 45.722656 302.390625 L 45.722656 116.242188 C 45.722656 110.503906 49.765625 105.558594 55.394531 104.417969 L 104.242188 94.511719 C 116.542969 92.019531 129.058594 90.761719 141.609375 90.761719 L 210.804688 90.761719 L 257.632812 43.054688 L 169.535156 43.054688 L 145.316406 67.730469 L 51.800781 86.6875 C 37.800781 89.527344 27.636719 101.957031 27.636719 116.242188 L 27.636719 302.390625 C 27.636719 316.679688 37.796875 329.105469 51.800781 331.949219 L 254.808594 373.105469 C 265.820312 375.335938 276.910156 376.453125 288 376.453125 C 299.089844 376.453125 310.179688 375.335938 321.191406 373.105469 L 524.199219 331.949219 C 538.199219 329.105469 548.363281 316.679688 548.363281 302.390625 L 548.363281 116.242188 C 548.363281 101.957031 538.199219 89.527344 524.199219 86.6875 "/>
    <path fill-rule="nonzero" fill="rgb(100%, 100%, 100%)" fill-opacity="1" d="M 122.707031 111.589844 L 219.480469 111.589844 L 288 41.941406 L 356.519531 111.589844 L 453.292969 111.589844 L 453.292969 101.089844 L 360.761719 101.089844 L 288 27.132812 L 215.238281 101.089844 L 122.707031 101.089844 Z M 122.707031 111.589844 "/>
    <path fill-rule="nonzero" fill="rgb(100%, 100%, 100%)" fill-opacity="1" d="M 284.433594 90.660156 L 270.632812 90.660156 L 270.632812 76.859375 L 284.433594 76.859375 Z M 284.433594 90.660156 "/>
    <path fill-rule="nonzero" fill="rgb(100%, 100%, 100%)" fill-opacity="1" d="M 305.363281 90.660156 L 291.5625 90.660156 L 291.5625 76.859375 L 305.363281 76.859375 Z M 305.363281 90.660156 "/>
    <path fill-rule="nonzero" fill="rgb(100%, 100%, 100%)" fill-opacity="1" d="M 284.433594 111.589844 L 270.632812 111.589844 L 270.632812 97.789062 L 284.433594 97.789062 Z M 284.433594 111.589844 "/>
    <path fill-rule="nonzero" fill="rgb(100%, 100%, 100%)" fill-opacity="1" d="M 305.363281 111.589844 L 291.5625 111.589844 L 291.5625 97.789062 L 305.363281 97.789062 Z M 305.363281 111.589844 "/>
    <path fill-rule="nonzero" fill="#f0a500" fill-opacity="1" d="M 407.847656 216.742188 L 377.953125 216.742188 L 377.953125 194.78125 L 398.472656 194.78125 L 398.472656 180.621094 L 377.953125 180.621094 L 377.953125 153.140625 L 402.875 153.140625 L 401.683594 137.898438 L 361.152344 137.898438 L 361.152344 231.984375 L 409.035156 231.984375 Z M 407.847656 216.742188 "/>
    <path fill-rule="nonzero" fill="#f0a500" fill-opacity="1" d="M 161.84375 253.09375 L 145.164062 253.09375 L 142.882812 197.40625 L 141.804688 155.386719 L 138.921875 155.386719 L 134.84375 196.671875 L 129.320312 253.09375 L 107.722656 253.09375 L 102.082031 195.644531 L 98.121094 155.386719 L 95.480469 155.386719 L 94.402344 197.261719 L 92.359375 255.039062 L 75.679688 255.039062 L 82.042969 137.898438 L 110.242188 137.898438 L 114.5625 182.863281 L 118.523438 236.050781 L 118.640625 236.050781 L 122.484375 183.15625 L 126.921875 137.898438 L 155.125 137.898438 Z M 161.84375 253.09375 "/>
    <path fill-rule="nonzero" fill="#f0a500" fill-opacity="1" d="M 198.433594 197.300781 L 194.351562 152.179688 L 189.191406 152.179688 L 185.234375 197.300781 Z M 176.113281 137.902344 L 207.433594 137.902344 L 218.832031 231.984375 L 201.792969 231.984375 L 199.753906 211.339844 L 183.910156 211.339844 L 181.871094 231.984375 L 164.832031 231.984375 Z M 176.113281 137.902344 "/>
    <path fill-rule="nonzero" fill="#f0a500" fill-opacity="1" d="M 215.148438 137.898438 L 215.148438 153.140625 L 228.347656 153.140625 L 228.347656 231.980469 L 245.386719 231.980469 L 245.386719 153.140625 L 267.503906 153.140625 L 267.503906 231.980469 L 284.542969 231.980469 L 284.542969 153.140625 L 297.144531 153.140625 L 297.144531 137.898438 Z M 215.148438 137.898438 "/>
    <path fill-rule="nonzero" fill="#f0a500" fill-opacity="1" d="M 321.105469 137.898438 L 321.105469 182.539062 L 337.1875 182.539062 L 337.1875 137.898438 L 354.226562 137.898438 L 354.226562 231.980469 L 337.1875 231.980469 L 337.1875 197.421875 L 321.105469 197.421875 L 321.105469 231.980469 L 304.066406 231.980469 L 304.066406 137.898438 Z M 321.105469 137.898438 "/>
    <path fill-rule="nonzero" fill="#f0a500" fill-opacity="1" d="M 466.238281 137.898438 L 471.277344 196.527344 L 474.398438 235.609375 L 478.238281 235.609375 L 479.558594 196.378906 L 482.917969 137.898438 L 500.320312 137.898438 L 491.320312 253.09375 L 462.28125 253.09375 L 457.476562 188.886719 L 455.320312 153.769531 L 453.039062 189.179688 L 448.238281 253.09375 L 419.199219 253.09375 L 410.195312 137.898438 L 427.480469 137.898438 L 431.078125 197.113281 L 432.398438 235.609375 L 436.238281 235.609375 L 439.238281 197.113281 L 444.28125 137.898438 Z M 466.238281 137.898438 "/>
    <path fill-rule="nonzero" fill="#f0a500" fill-opacity="1" d="M 75.679688 285.769531 C 75.679688 282.351562 78.242188 279.984375 81.792969 279.984375 C 85.277344 279.984375 87.839844 282.351562 87.839844 285.769531 C 87.839844 289.25 85.277344 291.617188 81.792969 291.617188 C 78.242188 291.617188 75.679688 289.25 75.679688 285.769531 "/>
    <path fill-rule="nonzero" fill="#f0a500" fill-opacity="1" d="M 128.78125 304.496094 L 128.78125 288.988281 L 111.167969 288.988281 L 111.167969 304.496094 L 104.269531 304.496094 L 104.269531 267.695312 L 111.167969 267.695312 L 111.167969 282.546875 L 128.78125 282.546875 L 128.78125 267.695312 L 135.679688 267.695312 L 135.679688 304.496094 Z M 128.78125 304.496094 "/>
    <path fill-rule="nonzero" fill="#f0a500" fill-opacity="1" d="M 170.777344 282.8125 C 168.414062 276.503906 167.496094 273.546875 167.429688 273.480469 L 167.230469 273.480469 L 163.679688 283.207031 L 161.25 289.84375 L 173.410156 289.84375 Z M 159.082031 295.820312 L 155.863281 304.496094 L 148.832031 304.496094 L 163.222656 267.699219 L 171.570312 267.699219 L 185.960938 304.496094 L 178.796875 304.496094 L 175.574219 295.820312 Z M 159.082031 295.820312 "/>
    <path fill-rule="nonzero" fill="#f0a500" fill-opacity="1" d="M 224.804688 304.496094 L 206.074219 278.277344 L 205.875 278.277344 C 205.875 278.34375 206.007812 282.285156 206.007812 286.621094 L 206.007812 304.496094 L 199.109375 304.496094 L 199.109375 267.695312 L 206.207031 267.695312 L 224.933594 293.390625 L 225.066406 293.390625 C 225.066406 293.324219 225 289.710938 225 285.835938 L 225 267.695312 L 231.902344 267.695312 L 231.902344 304.496094 Z M 224.804688 304.496094 "/>
    <path fill-rule="nonzero" fill="#f0a500" fill-opacity="1" d="M 261.9375 298.054688 C 269.890625 298.054688 275.277344 294.375 275.277344 286.226562 C 275.277344 278.144531 269.957031 274.136719 261.742188 274.136719 L 255.234375 274.136719 L 255.234375 298.054688 Z M 261.808594 267.699219 C 273.632812 267.699219 282.246094 274.664062 282.246094 286.226562 C 282.246094 297.859375 273.632812 304.496094 262.003906 304.496094 L 248.335938 304.496094 L 248.335938 267.699219 Z M 261.808594 267.699219 "/>
    <path fill-rule="nonzero" fill="#f0a500" fill-opacity="1" d="M 304.460938 304.496094 L 304.460938 290.171875 L 290.597656 267.695312 L 298.484375 267.695312 L 303.738281 276.171875 C 306.238281 280.3125 308.144531 283.601562 308.210938 283.664062 L 308.339844 283.664062 C 308.40625 283.601562 310.3125 280.3125 312.941406 276.109375 L 318.066406 267.695312 L 325.292969 267.695312 L 311.363281 290.171875 L 311.363281 304.496094 Z M 304.460938 304.496094 "/>
    <path fill-rule="nonzero" fill="#f0a500" fill-opacity="1" d="M 368.605469 286.949219 L 368.671875 277.816406 L 368.472656 277.816406 L 359.011719 295.625 L 354.480469 295.625 L 344.882812 277.421875 L 344.75 277.421875 C 344.75 277.488281 344.816406 283.203125 344.816406 286.554688 L 344.816406 304.496094 L 338.117188 304.496094 L 338.117188 267.699219 L 346.527344 267.699219 L 353.292969 280.050781 C 355.660156 284.324219 356.976562 287.148438 357.039062 287.148438 L 357.238281 287.148438 C 357.367188 287.148438 358.75 284.324219 361.113281 279.984375 L 367.75 267.699219 L 375.507812 267.699219 L 375.507812 304.496094 L 368.605469 304.496094 Z M 368.605469 286.949219 "/>
    <path fill-rule="nonzero" fill="#f0a500" fill-opacity="1" d="M 410.605469 282.8125 C 408.238281 276.503906 407.320312 273.546875 407.253906 273.480469 L 407.058594 273.480469 L 403.507812 283.207031 L 401.078125 289.84375 L 413.234375 289.84375 Z M 398.910156 295.820312 L 395.6875 304.496094 L 388.65625 304.496094 L 403.046875 267.699219 L 411.394531 267.699219 L 425.785156 304.496094 L 418.621094 304.496094 L 415.402344 295.820312 Z M 398.910156 295.820312 "/>
    <path fill-rule="nonzero" fill="#f0a500" fill-opacity="1" d="M 464.628906 304.496094 L 445.898438 278.277344 L 445.699219 278.277344 C 445.699219 278.34375 445.832031 282.285156 445.832031 286.621094 L 445.832031 304.496094 L 438.933594 304.496094 L 438.933594 267.695312 L 446.03125 267.695312 L 464.757812 293.390625 L 464.890625 293.390625 C 464.890625 293.324219 464.824219 289.710938 464.824219 285.835938 L 464.824219 267.695312 L 471.726562 267.695312 L 471.726562 304.496094 Z M 464.628906 304.496094 "/>
    <path fill-rule="nonzero" fill="#f0a500" fill-opacity="1" d="M 488.160156 285.769531 C 488.160156 282.351562 490.722656 279.984375 494.273438 279.984375 C 497.757812 279.984375 500.320312 282.351562 500.320312 285.769531 C 500.320312 289.25 497.757812 291.617188 494.273438 291.617188 C 490.722656 291.617188 488.160156 289.25 488.160156 285.769531 "/>
    <path fill-rule="nonzero" fill="#f0a500" fill-opacity="1" d="M 301.796875 247.773438 C 302.84375 247.773438 303.445312 248.539062 303.40625 249.542969 C 303.367188 251.957031 300.066406 253.566406 297.210938 253.125 C 297.695312 250.226562 299.542969 247.773438 301.796875 247.773438 M 307.347656 254.894531 C 306.019531 256.421875 303.488281 258.433594 301.195312 258.433594 C 298.539062 258.433594 297.332031 257.269531 297.089844 255.417969 C 301.515625 256.421875 306.707031 253.929688 306.707031 249.382812 C 306.707031 247.171875 305.136719 244.839844 302.039062 244.839844 C 297.382812 244.839844 294.027344 249.148438 293.601562 254.039062 C 291.976562 256.445312 290.316406 258.113281 289.085938 258.113281 C 288.480469 258.113281 288.117188 257.75 288.117188 257.105469 C 288.117188 255.097656 291.375 251.03125 291.335938 248.175781 C 291.335938 246.164062 290.007812 244.839844 288.039062 244.839844 C 285.90625 244.839844 283.695312 246.164062 282.085938 248.699219 C 283.574219 244.394531 285.019531 240.132812 286.628906 235.867188 L 283.128906 235.867188 C 281.492188 240.523438 279.28125 247.007812 277.347656 252.734375 C 275.425781 255.914062 273.324219 258.113281 271.90625 258.113281 C 269.734375 258.113281 269.976562 255.214844 272.511719 248.015625 L 276.050781 248.015625 L 277.015625 245.242188 L 273.515625 245.242188 C 274.160156 243.511719 274.882812 241.621094 275.726562 239.488281 L 272.1875 239.488281 L 270.054688 245.242188 L 268.085938 245.242188 L 267.160156 248.015625 L 269.089844 248.015625 C 266.636719 255.175781 265.46875 261.410156 270.980469 261.410156 C 272.398438 261.410156 273.816406 260.589844 275.105469 259.394531 C 274.914062 259.960938 274.730469 260.503906 274.5625 261.007812 L 278.101562 261.007812 C 279.46875 255.820312 282.808594 248.015625 286.429688 248.015625 C 287.273438 248.015625 287.59375 248.5 287.59375 249.261719 C 287.59375 251.355469 284.5 254.855469 284.5 257.953125 C 284.5 260.003906 285.746094 261.410156 287.996094 261.410156 C 290.15625 261.410156 292.277344 259.609375 293.96875 257.433594 C 294.886719 259.929688 297.292969 261.410156 300.429688 261.410156 C 304.128906 261.410156 307.265625 259.359375 308.957031 257.269531 Z M 307.347656 254.894531 "/>
    <path fill-rule="nonzero" fill="#f0a500" fill-opacity="1" d="M 257.605469 245.464844 L 171.277344 245.464844 L 171.277344 253.097656 L 257.605469 253.097656 Z M 257.605469 245.464844 "/>
    <path fill-rule="nonzero" fill="#f0a500" fill-opacity="1" d="M 407.652344 245.464844 L 316.554688 245.464844 L 316.554688 253.097656 L 407.652344 253.097656 Z M 407.652344 245.464844 "/>
    <path fill-rule="nonzero" fill="#f0a500" fill-opacity="1" d="M 524.199219 86.6875 L 430.683594 67.730469 L 406.464844 43.054688 L 318.367188 43.054688 L 365.195312 90.761719 L 434.390625 90.761719 C 446.941406 90.761719 459.457031 92.019531 471.757812 94.511719 L 520.605469 104.414062 C 526.230469 105.558594 530.277344 110.503906 530.277344 116.246094 L 530.277344 302.390625 C 530.277344 308.132812 526.230469 313.078125 520.605469 314.21875 L 317.601562 355.375 C 297.957031 359.359375 278.039062 359.355469 258.398438 355.375 L 55.394531 314.21875 C 49.765625 313.078125 45.722656 308.132812 45.722656 302.390625 L 45.722656 116.242188 C 45.722656 110.503906 49.765625 105.558594 55.394531 104.417969 L 104.242188 94.511719 C 116.542969 92.019531 129.058594 90.761719 141.609375 90.761719 L 210.804688 90.761719 L 257.632812 43.054688 L 169.535156 43.054688 L 145.316406 67.730469 L 51.800781 86.6875 C 37.800781 89.527344 27.636719 101.957031 27.636719 116.242188 L 27.636719 302.390625 C 27.636719 316.679688 37.796875 329.105469 51.800781 331.949219 L 254.808594 373.105469 C 265.820312 375.335938 276.910156 376.453125 288 376.453125 C 299.089844 376.453125 310.179688 375.335938 321.191406 373.105469 L 524.199219 331.949219 C 538.199219 329.105469 548.363281 316.679688 548.363281 302.390625 L 548.363281 116.242188 C 548.363281 101.957031 538.199219 89.527344 524.199219 86.6875 "/>
    <path fill-rule="nonzero" fill="#f0a500" fill-opacity="1" d="M 122.707031 111.589844 L 219.480469 111.589844 L 288 41.941406 L 356.519531 111.589844 L 453.292969 111.589844 L 453.292969 101.089844 L 360.761719 101.089844 L 288 27.132812 L 215.238281 101.089844 L 122.707031 101.089844 Z M 122.707031 111.589844 "/>
    <path fill-rule="nonzero" fill="#f0a500" fill-opacity="1" d="M 284.433594 90.660156 L 270.632812 90.660156 L 270.632812 76.859375 L 284.433594 76.859375 Z M 284.433594 90.660156 "/>
    <path fill-rule="nonzero" fill="#f0a500" fill-opacity="1" d="M 305.363281 90.660156 L 291.5625 90.660156 L 291.5625 76.859375 L 305.363281 76.859375 Z M 305.363281 90.660156 "/>
    <path fill-rule="nonzero" fill="#f0a500" fill-opacity="1" d="M 284.433594 111.589844 L 270.632812 111.589844 L 270.632812 97.789062 L 284.433594 97.789062 Z M 284.433594 111.589844 "/>
    <path fill-rule="nonzero" fill="#f0a500" fill-opacity="1" d="M 305.363281 111.589844 L 291.5625 111.589844 L 291.5625 97.789062 L 305.363281 97.789062 Z M 305.363281 111.589844 "/>
  </g>
</svg>